<svg width="76" height="20" viewBox="0 0 76 20" fill="none" xmlns="http://www.w3.org/2000/svg">
<path fill-rule="evenodd" clip-rule="evenodd" d="M75.8822 15.157C72.7063 20.5415 67.6766 18.9791 66.166 17.7558C65.5231 18.192 64.3958 19.1481 62.8926 19.0377C59.6913 18.8027 58.5449 14.2279 58.5449 14.2279C58.5679 14.2462 57.5913 14.5649 57.0635 14.5592C57.0567 15.9008 55.897 19.1056 52.7672 19.0646C49.2551 19.0188 48.5411 13.7864 48.5411 13.7864C48.5411 13.7864 48.1916 14.2717 46.8627 14.7551C46.9296 13.7244 46.8807 18.9077 42.6713 18.9839C39.3435 19.0442 38.4452 13.7057 38.4452 13.7057C38.4452 13.7057 37.8679 14.3054 36.7491 14.5134C36.8202 13.4659 36.7046 19.0015 32.4947 18.9839C29.6497 18.9721 28.6775 15.6954 28.7531 15.2406C28.8496 14.661 27.7916 19.0654 25.0281 18.9968C23.8877 18.9633 23.0375 18.1376 22.504 17.0368C21.7898 17.854 20.7529 18.9968 19.5897 18.9968C17.5017 18.9968 16.5812 17.2504 16.7371 12.2624C16.7504 11.6708 16.7077 11.4381 16.1196 11.3496C15.7666 11.2907 15.4051 11.1792 15.0226 11.1204C14.9 11.5295 13.8602 18.8637 10.2847 19.0029C9.08519 19.0496 8.4293 18.0105 7.89066 17.2393C7.06497 18.3316 5.97501 19.0377 4.42227 19.0377C1.79205 19.0377 0 16.9114 0 14.2885C0 11.6655 1.79205 9.53942 4.42227 9.53942C4.88732 9.53942 5.01787 9.60608 5.44272 9.73004C4.569 1.77504 6.63238 0.531787 8.43739 0.531787C10.1703 0.531787 13.1308 4.55384 8.96512 14.7559C9.88998 17.7989 11.8838 17.6268 12.8419 11.3626C13.0369 10.0893 12.5155 8.37099 13.3265 8.13117C14.809 7.69289 14.9663 9.00787 15.6614 9.22697C16.3964 9.45853 16.8254 9.43592 17.531 9.58327C18.7367 9.81873 19.2072 10.4664 19.0603 11.909C18.8839 13.7343 18.5753 16.391 19.5162 16.7148C20.1947 16.95 21.4335 15.5429 21.6509 14.773C21.8682 14.0031 21.9136 13.7396 21.9329 13.1749C21.9623 11.968 21.9992 11.0833 22.205 10.1706C22.2931 9.81736 22.3935 9.58347 22.7931 9.56748C23.1219 9.5591 23.7232 9.46009 23.9879 9.66611C24.3407 9.93119 24.2966 10.2002 24.2561 10.9081C23.8458 21.0015 27.0038 15.9628 27.9454 11.9283C27.6101 7.36623 27.8403 0.615326 30.6991 0.502101C32.1859 0.443218 32.8432 1.63431 32.9155 2.52335C33.12 5.03433 31.9745 9.19372 30.468 11.9909C29.607 17.6984 34.2325 18.8269 34.9722 14.2712C33.762 13.6958 32.4541 11.3668 33.5184 10.2318C34.1156 9.59483 36.6015 10.5099 36.6422 12.5057C37.8616 12.1796 38.0244 11.4911 38.0413 11.6052C37.7061 7.04312 38.017 0.615385 40.876 0.502159C42.3626 0.443276 43.0198 1.63437 43.0921 2.52341C43.2966 5.03438 42.1511 9.19378 40.6448 11.991C39.7837 17.6984 44.4093 18.827 45.1488 14.2713C44.2528 14.0984 42.3614 11.6212 43.4527 10.2319C44.0359 9.48944 46.5127 11.0334 46.79 12.5718C47.9614 12.2403 48.1205 11.5737 48.1373 11.6859C47.802 7.12397 48.1129 0.696235 50.9719 0.58301C52.4585 0.524126 53.1157 1.71522 53.188 2.60426C53.3925 5.11523 52.247 9.27471 50.7405 12.0719C49.8796 17.7794 54.5051 18.9077 55.2448 14.352C54.0135 14.147 52.2636 11.5314 53.672 10.1933C54.2347 9.65869 56.3848 11.0465 56.8881 12.6298C57.5874 12.6029 58.0227 12.3617 58.116 12.3374C56.9996 6.9818 57.8307 0.555878 60.9062 0.502238C62.5685 0.473274 64.1936 1.4009 63.4803 6.49604C62.7994 11.3574 60.3519 13.3975 60.3576 13.4287C60.5 14.0111 61.7559 18.8851 64.9185 16.3134C64.7548 15.9427 64.5909 15.564 64.4993 15.1052C63.9751 12.4327 65.0047 9.41409 67.8032 8.92622C69.4066 8.64671 70.917 9.42734 71.1558 11.1872C71.5487 14.0669 68.9484 16.1524 67.9596 16.6048C67.5167 16.3532 71.9742 19.212 74.6196 13.4829C74.773 13.1558 74.9579 13.1835 75.1975 13.3521C75.3667 13.4712 76.3305 14.3842 75.8822 15.157ZM6.33552 13.5809C6.20092 13.1785 5.92469 12.2918 5.82701 11.9076C5.28905 11.4398 4.90507 11.3638 4.21455 11.3638C2.68 11.3638 1.77679 12.7826 1.77679 14.3125C1.77679 15.8423 2.76077 17.2613 4.29533 17.2613C5.6252 17.2613 6.63735 16.3571 6.94615 15.0771C6.73001 14.5781 6.5156 14.1195 6.33552 13.5809ZM8.39979 2.63753C7.32153 2.63753 6.95576 5.20973 7.02674 7.40406C7.08953 9.34411 7.63164 11.0521 7.91286 11.8174C7.98426 11.9133 7.971 11.8509 8.03474 11.9526C9.90694 7.85053 9.13041 2.63753 8.39979 2.63753ZM30.8531 2.71833C29.4595 2.5585 29.4685 8.36389 29.6415 9.66611C30.3653 8.50823 31.6226 3.03009 30.8531 2.71833ZM41.0297 2.71833C39.6361 2.5585 39.6451 8.36389 39.8182 9.66611C40.5419 8.50823 41.7993 3.03009 41.0297 2.71833ZM51.1257 2.7991C49.732 2.63927 49.741 8.44469 49.9141 9.747C50.6378 8.58902 51.8952 3.11084 51.1257 2.7991ZM61.06 2.37849C58.8887 2.81451 59.3943 10.054 59.7241 11.3237C62.2817 7.81085 62.3344 2.24654 61.06 2.37849ZM69.1975 11.4254C69.0871 10.9638 68.5351 10.7171 68.1541 10.7779C67.0639 10.9268 66.0065 12.2846 66.4158 14.3518C66.5069 14.8122 66.7349 15.236 66.7312 15.2219C69.1711 13.585 69.3785 12.2951 69.1975 11.4254ZM23.2205 7.96958C22.9089 7.96964 22.6043 7.87729 22.3452 7.70422C22.0861 7.53114 21.8841 7.28512 21.7648 6.99725C21.6455 6.70939 21.6143 6.39261 21.6751 6.087C21.7358 5.78138 21.8859 5.50065 22.1062 5.2803C22.3265 5.05995 22.6072 4.90989 22.9128 4.84909C23.2184 4.78829 23.5352 4.81948 23.8231 4.93873C24.111 5.05797 24.357 5.25991 24.5301 5.519C24.7032 5.77809 24.7956 6.0827 24.7956 6.39429C24.7956 6.60115 24.7549 6.80599 24.6757 6.9971C24.5966 7.18822 24.4806 7.36187 24.3343 7.50815C24.188 7.65443 24.0144 7.77047 23.8233 7.84964C23.6322 7.92882 23.4274 7.96957 23.2205 7.96958Z" fill="#0D0C22"/>
</svg>
