<svg width="33" height="16" viewBox="0 0 33 16" fill="none" xmlns="http://www.w3.org/2000/svg">
<rect width="33" height="16" rx="2" fill="#CCCCCC"/>
<path d="M2.48295 5.50852V4.72727H7.9375V5.50852H5.65057V12H4.76989V5.50852H2.48295ZM9.2967 12V4.72727H13.6859V5.50852H10.1774V7.96591H13.4586V8.74716H10.1774V11.2188H13.7427V12H9.2967ZM15.5716 12H14.6483L17.3187 4.72727H18.2278L20.8983 12H19.975L17.8017 5.87784H17.7449L15.5716 12ZM15.9125 9.15909H19.6341V9.94034H15.9125V9.15909ZM22.0311 4.72727H23.0822L25.5538 10.7642H25.639L28.1106 4.72727H29.1618V12H28.3379V6.47443H28.2669L25.9941 12H25.1987L22.926 6.47443H22.8549V12H22.0311V4.72727Z" fill="white"/>
</svg>
